<?xml version="1.0" standalone="no"?>
<!DOCTYPE svg PUBLIC "-//W3C//DTD SVG 20010904//EN"
 "http://www.w3.org/TR/2001/REC-SVG-20010904/DTD/svg10.dtd">
<svg version="1.0" xmlns="http://www.w3.org/2000/svg"
 width="283.000000pt" height="283.000000pt" viewBox="0 0 283.000000 283.000000"
 preserveAspectRatio="xMidYMid meet">

<g transform="translate(0.000000,283.000000) scale(0.100000,-0.100000)"
fill="#000000" stroke="none">
<path d="M615 2600 c-199 -41 -349 -191 -384 -384 -7 -40 -11 -312 -11 -805 0
-821 1 -828 61 -942 59 -109 190 -211 310 -238 28 -7 337 -11 830 -11 757 0
789 1 851 20 70 21 167 80 209 126 45 49 89 126 109 193 19 60 20 96 20 850 0
493 -4 802 -11 830 -27 120 -129 251 -238 310 -114 60 -119 61 -951 60 -415
-1 -773 -5 -795 -9z m1639 -209 c66 -33 122 -91 155 -160 l26 -56 0 -460 0
-460 -26 -55 c-31 -66 -94 -131 -157 -162 -45 -22 -58 -23 -332 -26 l-285 -3
-91 -146 c-52 -85 -99 -149 -111 -154 -33 -12 -55 11 -148 161 l-86 140 -269
0 c-246 0 -274 2 -324 20 -69 26 -134 83 -171 151 l-30 54 0 480 0 480 24 45
c42 81 117 145 201 171 14 4 374 7 800 6 l775 -2 49 -24z"/>
<path d="M1070 1962 c0 -41 5 -64 14 -69 30 -18 36 -53 36 -228 l0 -176 61 3
60 3 0 194 c0 182 -2 197 -23 240 -27 53 -60 79 -111 88 l-37 6 0 -61z"/>
<path d="M620 1750 l0 -261 63 3 c45 2 61 7 59 16 -2 9 9 6 28 -8 26 -19 41
-22 91 -18 65 5 100 24 135 76 44 64 35 179 -18 247 -43 55 -136 71 -196 35
-18 -11 -35 -20 -38 -20 -3 0 -4 42 -3 93 l2 92 -62 3 -61 3 0 -261z m258 -33
c46 -42 11 -127 -52 -127 -66 0 -105 64 -71 116 31 47 79 51 123 11z"/>
<path d="M1455 1844 c-107 -39 -154 -154 -106 -259 36 -78 85 -105 189 -105
101 1 174 41 201 113 18 48 13 120 -12 168 -43 83 -167 121 -272 83z m146
-133 c59 -74 -49 -164 -116 -96 -30 29 -32 64 -5 98 34 43 87 42 121 -2z"/>
<path d="M1924 1849 c-18 -5 -46 -25 -62 -44 -134 -151 18 -394 190 -306 21
10 39 17 41 14 10 -9 -13 -78 -29 -90 -10 -7 -30 -13 -46 -13 -27 0 -28 -1
-28 -55 l0 -55 45 0 c86 0 153 49 175 128 5 20 10 124 10 230 l0 192 -60 0
c-47 0 -60 -3 -60 -15 0 -19 -3 -19 -42 5 -35 21 -82 24 -134 9z m154 -135
c67 -75 -42 -171 -113 -99 -29 28 -32 61 -9 93 33 47 82 49 122 6z"/>
</g>
</svg>
