<?xml version="1.0" standalone="no"?>
<!DOCTYPE svg PUBLIC "-//W3C//DTD SVG 20010904//EN"
 "http://www.w3.org/TR/2001/REC-SVG-20010904/DTD/svg10.dtd">
<svg version="1.0" xmlns="http://www.w3.org/2000/svg"
 width="500.000000pt" height="500.000000pt" viewBox="0 0 500.000000 500.000000"
 preserveAspectRatio="xMidYMid meet">

<g transform="translate(0.000000,500.000000) scale(0.100000,-0.100000)"
fill="#000000" stroke="none">
<path d="M1561 3100 c-195 -52 -361 -208 -422 -400 -32 -98 -30 -249 5 -355
49 -153 137 -255 280 -326 127 -62 185 -69 572 -69 l334 0 0 124 0 125 -27 3
-28 3 -3 153 -3 152 -249 0 c-212 0 -250 -2 -250 -15 0 -10 15 -15 58 -17 l57
-3 0 -60 0 -60 -77 -3 c-96 -4 -148 10 -193 49 -83 73 -62 209 39 258 23 12
55 21 71 21 66 0 155 -71 155 -124 0 -14 21 -16 195 -16 l195 0 0 134 0 135
-43 63 c-75 109 -211 200 -350 233 -87 21 -226 18 -316 -5z"/>
<path d="M2320 2585 l0 -335 119 0 119 0 7 53 c3 28 15 79 26 113 17 54 19 85
17 280 l-3 219 -142 3 -143 3 0 -336z"/>
<path d="M3540 2821 c0 -44 4 -82 8 -85 12 -7 92 6 92 15 0 5 -16 9 -35 9
l-35 0 0 70 c0 56 -3 70 -15 70 -12 0 -15 -15 -15 -79z"/>
<path d="M3715 2823 c-9 -32 -18 -66 -21 -75 -4 -14 4 -20 38 -28 53 -14 62
-14 66 -2 1 5 -12 13 -30 18 -23 7 -33 16 -33 29 0 21 2 21 48 10 20 -5 27 -3
27 8 0 8 -13 17 -30 21 -21 4 -30 11 -30 26 0 23 3 23 47 11 23 -7 33 -6 37 4
3 9 -10 17 -39 24 -24 6 -48 11 -54 11 -5 0 -17 -26 -26 -57z"/>
<path d="M3890 2743 l-45 -65 35 -29 c35 -29 60 -37 60 -20 0 5 -11 18 -25 29
-42 33 -25 66 19 37 37 -25 54 -7 20 20 -19 15 -25 27 -21 40 7 16 9 16 30 1
32 -24 47 -29 55 -21 4 4 -6 18 -23 31 -57 47 -56 47 -105 -23z"/>
<path d="M2867 2600 c-101 -26 -188 -97 -231 -189 -19 -42 -21 -66 -24 -268
l-3 -223 145 0 146 0 0 185 0 185 25 16 c23 15 27 15 50 0 l25 -16 0 -185 0
-185 145 0 145 0 0 82 0 82 53 -54 c63 -65 133 -99 221 -107 l66 -6 0 142 c0
136 -1 141 -21 141 -23 0 -60 18 -71 34 -24 36 8 86 55 86 50 0 57 -26 57
-222 l0 -178 141 0 140 0 -3 218 c-3 214 -3 218 -31 273 -48 99 -144 170 -251
187 -139 22 -272 -38 -347 -156 l-28 -44 -20 40 c-27 54 -111 127 -169 147
-58 20 -164 27 -215 15z"/>
</g>
</svg>
