<?xml version="1.0" standalone="no"?>
<!DOCTYPE svg PUBLIC "-//W3C//DTD SVG 20010904//EN"
 "http://www.w3.org/TR/2001/REC-SVG-20010904/DTD/svg10.dtd">
<svg version="1.0" xmlns="http://www.w3.org/2000/svg"
 width="500.000000pt" height="500.000000pt" viewBox="0 0 500.000000 500.000000"
 preserveAspectRatio="xMidYMid meet">

<g transform="translate(0.000000,500.000000) scale(0.100000,-0.100000)"
fill="#000000" stroke="none">
<path d="M0 2500 l0 -2500 2500 0 2500 0 0 2500 0 2500 -2500 0 -2500 0 0
-2500z m1730 225 l0 -365 210 0 210 0 0 -205 0 -205 -420 0 -420 0 0 570 0
570 210 0 210 0 0 -365z m930 183 c76 -39 123 -99 134 -173 12 -75 1 -101 -58
-140 -50 -33 -57 -35 -140 -35 -83 0 -86 1 -76 19 16 31 12 59 -12 75 -46 32
-100 6 -100 -49 0 -49 14 -55 143 -55 l119 0 -35 -51 c-40 -59 -65 -134 -65
-197 l0 -45 -97 5 c-73 4 -110 11 -145 27 -74 36 -133 94 -170 169 -30 60 -33
75 -32 152 1 125 43 209 137 274 73 50 143 67 247 61 71 -3 96 -10 150 -37z
m756 -183 c17 -17 24 -34 22 -51 -4 -33 -22 -36 -26 -4 -8 55 -56 68 -91 24
-26 -33 -26 -36 -3 -65 13 -15 25 -20 37 -16 13 6 15 10 6 21 -20 24 9 31 32
7 l21 -21 -29 -30 c-32 -33 -45 -38 -45 -15 0 8 -6 15 -14 15 -21 0 -56 49
-56 77 0 14 13 37 29 54 38 37 82 39 117 4z m-266 -147 c106 -54 159 -161 131
-264 -22 -81 -27 -84 -162 -84 -115 0 -119 1 -109 19 16 31 12 59 -12 75 -46
32 -100 6 -100 -49 0 -52 9 -55 208 -55 l184 0 0 -146 0 -146 -212 4 c-199 3
-216 5 -260 27 -75 37 -134 95 -170 169 -30 60 -33 75 -32 152 1 125 43 209
137 274 73 50 143 67 247 61 71 -3 96 -10 150 -37z m383 -12 c1 -5 -30 -27
-69 -48 -57 -31 -73 -35 -77 -24 -4 10 13 26 56 50 61 34 86 40 90 22z m54
-123 c5 -12 -8 -29 -43 -61 l-49 -44 40 6 c22 4 48 10 58 12 14 5 18 1 15 -12
-5 -26 -145 -55 -159 -33 -7 10 5 26 43 61 l52 46 -47 -10 c-47 -10 -87 -4
-73 10 6 6 117 36 149 41 4 0 11 -7 14 -16z m-56 -234 c91 -53 90 -69 -6 -86
-39 -6 -78 -12 -87 -12 -23 -1 -13 25 13 32 13 4 19 14 19 35 0 17 -4 34 -10
37 -11 7 -14 35 -4 35 3 0 37 -18 75 -41z"/>
<path d="M3497 2170 c-5 -21 7 -25 37 -14 15 6 15 8 -1 20 -24 18 -30 17 -36
-6z"/>
</g>
</svg>
